<svg width="900" height="520" viewBox="0 0 900 520" xmlns="http://www.w3.org/2000/svg">
  <defs>
    <linearGradient id="bgGrad" x1="0" y1="0" x2="0" y2="1">
      <stop offset="0%" stop-color="#0a0014"/>
      <stop offset="100%" stop-color="#1a0033"/>
    </linearGradient>
    <linearGradient id="arcGrad" x1="0" y1="0" x2="1" y2="1">
      <stop offset="0%" stop-color="#ff2d95"/>
      <stop offset="50%" stop-color="#9b30ff"/>
      <stop offset="100%" stop-color="#ffd93d"/>
    </linearGradient>
    <filter id="neonGlow" x="-50%" y="-50%" width="200%" height="200%">
      <feGaussianBlur stdDeviation="3" result="blur"/>
      <feMerge>
        <feMergeNode in="blur"/>
        <feMergeNode in="SourceGraphic"/>
      </feMerge>
    </filter>
    <pattern id="scanlines" width="4" height="4" patternUnits="userSpaceOnUse">
      <rect width="4" height="2" fill="#000000" opacity="0.10"/>
    </pattern>
  </defs>

  <rect width="900" height="520" rx="16" fill="url(#bgGrad)"/>
  <rect width="900" height="520" rx="16" fill="url(#scanlines)"/>
  <rect x="2" y="2" width="896" height="516" rx="16" fill="none" stroke="#9b30ff" stroke-width="2" opacity="0.6"/>

  <!-- terminal title bar -->
  <rect x="0" y="0" width="900" height="44" rx="16" fill="#150022"/>
  <rect x="0" y="28" width="900" height="16" fill="#150022"/>
  <circle cx="24" cy="22" r="7" fill="#ff2d95"/>
  <circle cx="48" cy="22" r="7" fill="#9b30ff"/>
  <circle cx="72" cy="22" r="7" fill="#ffd93d"/>
  <text x="100" y="27" font-family="Consolas, monospace" font-size="14" fill="#d9c8ff">user@AurelieeF:~$ ./github_stats.sh</text>

  <!-- HUD corners -->
  <path d="M20,74 L20,44 L50,44" stroke="#ffd93d" stroke-width="3" fill="none"/>
  <path d="M850,44 L880,44 L880,74" stroke="#ffd93d" stroke-width="3" fill="none"/>
  <path d="M20,476 L20,500 L50,500" stroke="#ff2d95" stroke-width="3" fill="none"/>
  <path d="M850,500 L880,500 L880,476" stroke="#ff2d95" stroke-width="3" fill="none"/>

  
  <g>
    <circle cx="240" cy="300" r="170" fill="none" stroke="#9b30ff" stroke-width="1"
      stroke-dasharray="2,6" opacity="0.25"/>
    <line x1="240.0" y1="156.0" x2="240.0" y2="144.0" stroke="#ffd93d" stroke-width="2" opacity="0.75"/><line x1="277.3" y1="160.9" x2="280.4" y2="149.3" stroke="#9b30ff" stroke-width="2" opacity="0.75"/><line x1="312.0" y1="175.3" x2="318.0" y2="164.9" stroke="#9b30ff" stroke-width="2" opacity="0.75"/><line x1="341.8" y1="198.2" x2="350.3" y2="189.7" stroke="#ffd93d" stroke-width="2" opacity="0.75"/><line x1="364.7" y1="228.0" x2="375.1" y2="222.0" stroke="#9b30ff" stroke-width="2" opacity="0.75"/><line x1="379.1" y1="262.7" x2="390.7" y2="259.6" stroke="#9b30ff" stroke-width="2" opacity="0.75"/><line x1="384.0" y1="300.0" x2="396.0" y2="300.0" stroke="#ffd93d" stroke-width="2" opacity="0.75"/><line x1="379.1" y1="337.3" x2="390.7" y2="340.4" stroke="#9b30ff" stroke-width="2" opacity="0.75"/><line x1="364.7" y1="372.0" x2="375.1" y2="378.0" stroke="#9b30ff" stroke-width="2" opacity="0.75"/><line x1="341.8" y1="401.8" x2="350.3" y2="410.3" stroke="#ffd93d" stroke-width="2" opacity="0.75"/><line x1="312.0" y1="424.7" x2="318.0" y2="435.1" stroke="#9b30ff" stroke-width="2" opacity="0.75"/><line x1="277.3" y1="439.1" x2="280.4" y2="450.7" stroke="#9b30ff" stroke-width="2" opacity="0.75"/><line x1="240.0" y1="444.0" x2="240.0" y2="456.0" stroke="#ffd93d" stroke-width="2" opacity="0.75"/><line x1="202.7" y1="439.1" x2="199.6" y2="450.7" stroke="#9b30ff" stroke-width="2" opacity="0.75"/><line x1="168.0" y1="424.7" x2="162.0" y2="435.1" stroke="#9b30ff" stroke-width="2" opacity="0.75"/><line x1="138.2" y1="401.8" x2="129.7" y2="410.3" stroke="#ffd93d" stroke-width="2" opacity="0.75"/><line x1="115.3" y1="372.0" x2="104.9" y2="378.0" stroke="#9b30ff" stroke-width="2" opacity="0.75"/><line x1="100.9" y1="337.3" x2="89.3" y2="340.4" stroke="#9b30ff" stroke-width="2" opacity="0.75"/><line x1="96.0" y1="300.0" x2="84.0" y2="300.0" stroke="#ffd93d" stroke-width="2" opacity="0.75"/><line x1="100.9" y1="262.7" x2="89.3" y2="259.6" stroke="#9b30ff" stroke-width="2" opacity="0.75"/><line x1="115.3" y1="228.0" x2="104.9" y2="222.0" stroke="#9b30ff" stroke-width="2" opacity="0.75"/><line x1="138.2" y1="198.2" x2="129.7" y2="189.7" stroke="#ffd93d" stroke-width="2" opacity="0.75"/><line x1="168.0" y1="175.3" x2="162.0" y2="164.9" stroke="#9b30ff" stroke-width="2" opacity="0.75"/><line x1="202.7" y1="160.9" x2="199.6" y2="149.3" stroke="#9b30ff" stroke-width="2" opacity="0.75"/>
    <circle cx="240" cy="300" r="130" fill="none" stroke="#2a0845" stroke-width="14"/>
    <circle cx="240" cy="300" r="130" fill="none" stroke="url(#arcGrad)" stroke-width="14"
      stroke-linecap="round" stroke-dasharray="635.5 181.3"
      transform="rotate(-90 240 300)" filter="url(#neonGlow)"/>
    <line x1="240" y1="300" x2="171.2" y2="201.7" stroke="#ffd93d"
      stroke-width="2" opacity="0.55" filter="url(#neonGlow)"/>
    <text x="240" y="294" text-anchor="middle" font-family="Consolas, monospace"
      font-weight="bold" font-size="46" fill="#ffffff" filter="url(#neonGlow)">6</text>
    <text x="240" y="326" text-anchor="middle" font-family="Consolas, monospace"
      font-size="13" letter-spacing="3" fill="#ffd93d">DAY STREAK</text>
    <text x="240" y="124" text-anchor="middle" font-family="Consolas, monospace"
      font-size="12" letter-spacing="2" fill="#b892ff">ACTIVITY_LEVEL: 78%</text>
  </g>

  <text x="520" y="130" font-family="Consolas, monospace" font-size="15" fill="#9b30ff">&gt; querying github.com/AurelieeF ...</text>

    <text x="520" y="170" font-family="Consolas, monospace" font-size="14" fill="#ffd93d"
      letter-spacing="1">CONTRIBUTIONS_1Y</text>
    <text x="850" y="170" font-family="Consolas, monospace" font-size="15" fill="#ffffff"
      text-anchor="end" filter="url(#neonGlow)">284</text>
    <line x1="520" y1="182" x2="850" y2="182" stroke="#ff2d95"
      stroke-width="1" opacity="0.3" stroke-dasharray="3,3"/>
    <text x="520" y="216" font-family="Consolas, monospace" font-size="14" fill="#ffd93d"
      letter-spacing="1">PUBLIC_REPOS</text>
    <text x="850" y="216" font-family="Consolas, monospace" font-size="15" fill="#ffffff"
      text-anchor="end" filter="url(#neonGlow)">3</text>
    <line x1="520" y1="228" x2="850" y2="228" stroke="#ff2d95"
      stroke-width="1" opacity="0.3" stroke-dasharray="3,3"/>
    <text x="520" y="262" font-family="Consolas, monospace" font-size="14" fill="#ffd93d"
      letter-spacing="1">TOTAL_STARS</text>
    <text x="850" y="262" font-family="Consolas, monospace" font-size="15" fill="#ffffff"
      text-anchor="end" filter="url(#neonGlow)">0</text>
    <line x1="520" y1="274" x2="850" y2="274" stroke="#ff2d95"
      stroke-width="1" opacity="0.3" stroke-dasharray="3,3"/>
    <text x="520" y="308" font-family="Consolas, monospace" font-size="14" fill="#ffd93d"
      letter-spacing="1">FOLLOWERS</text>
    <text x="850" y="308" font-family="Consolas, monospace" font-size="15" fill="#ffffff"
      text-anchor="end" filter="url(#neonGlow)">8</text>
    <line x1="520" y1="320" x2="850" y2="320" stroke="#ff2d95"
      stroke-width="1" opacity="0.3" stroke-dasharray="3,3"/>

  <text x="30" y="500" font-family="Consolas, monospace" font-size="12" fill="#b892ff">&gt; SYSTEM STATUS: ONLINE_</text>
  <text x="870" y="500" font-family="Consolas, monospace" font-size="12" fill="#b892ff" text-anchor="end">LAST SYNC: 2026-08-25</text>
</svg>